<?xml version="1.0" encoding="UTF-8"?>
<svg xmlns="http://www.w3.org/2000/svg" width="1024" height="1024" viewBox="0 0 1024 1024" fill="none">
  <defs>
    <linearGradient id="bg" x1="140" y1="100" x2="900" y2="940" gradientUnits="userSpaceOnUse">
      <stop offset="0" stop-color="#022c22"/>
      <stop offset="0.35" stop-color="#064e3b"/>
      <stop offset="0.7" stop-color="#065f46"/>
      <stop offset="1" stop-color="#047857"/>
    </linearGradient>
    <radialGradient id="glow" cx="512" cy="490" r="400" gradientUnits="userSpaceOnUse">
      <stop offset="0" stop-color="#d1fae5" stop-opacity="0.11"/>
      <stop offset="1" stop-color="#000000" stop-opacity="0"/>
    </radialGradient>
    <radialGradient id="vignette" cx="512" cy="530" r="600" gradientUnits="userSpaceOnUse">
      <stop offset="0.68" stop-color="#000000" stop-opacity="0"/>
      <stop offset="1" stop-color="#000000" stop-opacity="0.4"/>
    </radialGradient>
    <linearGradient id="strandBack" x1="380" y1="180" x2="644" y2="850" gradientUnits="userSpaceOnUse">
      <stop offset="0" stop-color="#5eead4" stop-opacity="0.5"/>
      <stop offset="0.5" stop-color="#99f6e4" stop-opacity="0.38"/>
      <stop offset="1" stop-color="#5eead4" stop-opacity="0.5"/>
    </linearGradient>
    <linearGradient id="strandFront" x1="380" y1="180" x2="644" y2="850" gradientUnits="userSpaceOnUse">
      <stop offset="0" stop-color="#ffffff"/>
      <stop offset="0.45" stop-color="#f5f4ef"/>
      <stop offset="1" stop-color="#ffffff"/>
    </linearGradient>
    <radialGradient id="node" cx="0" cy="0" r="1" gradientUnits="userSpaceOnUse" gradientTransform="scale(6)">
      <stop offset="0" stop-color="#fde68a"/>
      <stop offset="0.5" stop-color="#d4a24a"/>
      <stop offset="1" stop-color="#8b5a12"/>
    </radialGradient>
    <filter id="strandShadow" x="-15%" y="-5%" width="130%" height="110%">
      <feDropShadow dx="0" dy="3" stdDeviation="4" flood-color="#011a14" flood-opacity="0.5"/>
    </filter>
  </defs>

  <rect width="1024" height="1024" fill="url(#bg)"/>
  <rect width="1024" height="1024" fill="url(#glow)"/>
  <rect width="1024" height="1024" fill="url(#vignette)"/>

  <g id="dna">
    <path d="M 512.00 176.00 C 510.01 176.63 508.87 176.99 504.90 178.24 C 500.93 179.49 501.77 179.23 497.82 180.48 C 493.87 181.73 494.71 181.47 490.79 182.72 C 486.86 183.97 487.69 183.71 483.82 184.96 C 479.94 186.21 480.76 185.95 476.93 187.20 C 473.11 188.45 473.92 188.19 470.16 189.44 C 466.40 190.69 467.19 190.43 463.51 191.68 C 459.83 192.93 460.61 192.67 457.02 193.92 C 453.42 195.17 454.18 194.91 450.69 196.16 C 447.20 197.41 447.93 197.15 444.55 198.40 C 441.17 199.65 441.88 199.39 438.62 200.64 C 435.36 201.89 436.04 201.63 432.91 202.88 C 429.79 204.13 429.92 204.09 427.45 205.12 C 424.99 206.15 425.05 206.15 424.11 206.55" stroke="url(#strandBack)" stroke-width="17" stroke-linecap="round" stroke-linejoin="round" fill="none"/>
    <path d="M 599.89 206.55 C 600.41 206.77 599.85 206.50 601.75 207.36 C 603.65 208.22 604.00 208.35 606.67 209.60 C 609.35 210.85 608.80 210.59 611.31 211.84 C 613.81 213.09 613.30 212.83 615.63 214.08 C 617.97 215.33 617.49 215.07 619.64 216.32 C 621.79 217.57 621.35 217.31 623.32 218.56 C 625.28 219.81 624.88 219.55 626.65 220.80 C 628.42 222.05 628.06 221.79 629.63 223.04 C 631.20 224.29 630.89 224.03 632.25 225.28 C 633.61 226.53 633.34 226.27 634.50 227.52 C 635.65 228.77 635.43 228.51 636.37 229.76 C 637.31 231.01 637.13 230.75 637.86 232.00 C 638.58 233.25 638.45 232.99 638.96 234.24 C 639.46 235.49 639.38 235.23 639.67 236.48 C 639.95 237.73 639.92 237.47 639.98 238.72 C 640.05 239.97 640.06 239.71 639.90 240.96 C 639.75 242.21 639.81 241.95 639.43 243.20 C 639.06 244.45 639.16 244.19 638.57 245.44 C 637.97 246.69 638.12 246.43 637.31 247.68 C 636.50 248.93 636.70 248.67 635.67 249.92 C 634.65 251.17 634.89 250.91 633.65 252.16 C 632.42 253.41 632.70 253.15 631.26 254.40 C 629.81 255.65 630.14 255.39 628.49 256.64 C 626.85 257.89 627.22 257.63 625.37 258.88 C 623.53 260.13 623.94 259.87 621.90 261.12 C 619.86 262.37 620.32 262.11 618.09 263.36 C 615.87 264.61 616.24 264.40 613.96 265.60 C 611.67 266.80 611.05 267.07 609.92 267.64" stroke="url(#strandBack)" stroke-width="17" stroke-linecap="round" stroke-linejoin="round" fill="none"/>
    <path d="M 414.08 267.64 C 414.19 267.69 413.05 267.16 414.49 267.84 C 415.94 268.52 416.50 268.83 419.24 270.08 C 421.98 271.33 421.38 271.07 424.28 272.32 C 427.18 273.57 426.54 273.31 429.59 274.56 C 432.63 275.81 431.97 275.55 435.15 276.80 C 438.33 278.05 437.64 277.79 440.94 279.04 C 444.25 280.29 443.53 280.03 446.96 281.28 C 450.38 282.53 449.64 282.27 453.17 283.52 C 456.71 284.77 455.94 284.51 459.57 285.76 C 463.20 287.01 462.42 286.75 466.13 288.00 C 469.84 289.25 469.04 288.99 472.83 290.24 C 476.61 291.49 475.80 291.23 479.65 292.48 C 483.50 293.73 482.67 293.47 486.57 294.72 C 490.47 295.97 489.63 295.71 493.57 296.96 C 497.50 298.21 496.66 297.95 500.62 299.20 C 504.58 300.45 503.74 300.19 507.71 301.44 C 511.69 302.69 510.84 302.43 514.81 303.68 C 518.79 304.93 517.94 304.67 521.91 305.92 C 525.87 307.17 525.03 306.91 528.97 308.16 C 532.91 309.41 532.08 309.15 535.98 310.40 C 539.89 311.65 539.06 311.39 542.92 312.64 C 546.78 313.89 545.97 313.63 549.77 314.88 C 553.56 316.13 552.76 315.87 556.49 317.12 C 560.22 318.37 559.43 318.11 563.08 319.36 C 566.73 320.61 565.96 320.35 569.51 321.60 C 573.07 322.85 572.32 322.59 575.77 323.84 C 579.22 325.09 578.49 324.83 581.83 326.08 C 585.16 327.33 585.74 327.58 587.67 328.32 C 589.60 329.06 588.42 328.61 588.71 328.73" stroke="url(#strandBack)" stroke-width="17" stroke-linecap="round" stroke-linejoin="round" fill="none"/>
    <path d="M 435.29 328.73 C 434.01 329.24 433.50 329.42 430.72 330.56 C 427.94 331.70 428.29 331.55 425.36 332.80 C 422.43 334.05 423.04 333.79 420.27 335.04 C 417.49 336.29 418.07 336.03 415.46 337.28 C 412.85 338.53 413.38 338.27 410.94 339.52 C 408.50 340.77 409.00 340.51 406.74 341.76 C 404.48 343.01 404.94 342.75 402.86 344.00 C 400.78 345.25 401.21 344.99 399.32 346.24 C 397.43 347.49 397.81 347.23 396.13 348.48 C 394.44 349.73 394.77 349.47 393.29 350.72 C 391.80 351.97 392.09 351.71 390.81 352.96 C 389.53 354.21 389.78 353.95 388.72 355.20 C 387.65 356.45 387.85 356.19 387.00 357.44 C 386.14 358.69 386.30 358.43 385.66 359.68 C 385.02 360.93 385.14 360.67 384.72 361.92 C 384.30 363.17 384.36 362.91 384.16 364.16 C 383.96 365.41 383.98 365.15 384.00 366.40 C 384.02 367.65 383.99 367.39 384.24 368.64 C 384.48 369.89 384.40 369.63 384.86 370.88 C 385.32 372.13 385.20 371.87 385.88 373.12 C 386.56 374.37 386.39 374.11 387.29 375.36 C 388.19 376.61 387.97 376.35 389.08 377.60 C 390.19 378.85 389.93 378.59 391.25 379.84 C 392.57 381.09 392.27 380.83 393.79 382.08 C 395.32 383.33 394.97 383.07 396.70 384.32 C 398.43 385.57 398.04 385.31 399.96 386.56 C 401.89 387.81 402.07 387.89 403.57 388.80 C 405.07 389.71 404.83 389.53 405.32 389.82" stroke="url(#strandBack)" stroke-width="17" stroke-linecap="round" stroke-linejoin="round" fill="none"/>
    <path d="M 618.68 389.82 C 618.07 390.16 618.30 390.07 616.49 391.04 C 614.68 392.01 614.70 392.03 612.23 393.28 C 609.76 394.53 610.30 394.27 607.66 395.52 C 605.02 396.77 605.60 396.51 602.79 397.76 C 599.99 399.01 600.60 398.75 597.65 400.00 C 594.69 401.25 595.34 400.99 592.24 402.24 C 589.14 403.49 589.82 403.23 586.58 404.48 C 583.35 405.73 584.05 405.47 580.70 406.72 C 577.34 407.97 578.07 407.71 574.60 408.96 C 571.13 410.21 571.88 409.95 568.31 411.20 C 564.74 412.45 565.51 412.19 561.85 413.44 C 558.19 414.69 558.97 414.43 555.23 415.68 C 551.49 416.93 552.29 416.67 548.48 417.92 C 544.67 419.17 545.49 418.91 541.62 420.16 C 537.75 421.41 538.58 421.15 534.67 422.40 C 530.75 423.65 531.59 423.39 527.64 424.64 C 523.70 425.89 524.54 425.63 520.57 426.88 C 516.60 428.13 517.45 427.87 513.47 429.12 C 509.50 430.37 510.34 430.11 506.37 431.36 C 502.40 432.61 503.24 432.35 499.29 433.60 C 495.33 434.85 496.17 434.59 492.24 435.84 C 488.31 437.09 489.14 436.83 485.26 438.08 C 481.37 439.33 482.19 439.07 478.35 440.32 C 474.52 441.57 475.33 441.31 471.55 442.56 C 467.78 443.81 468.58 443.55 464.88 444.80 C 461.18 446.05 461.96 445.79 458.35 447.04 C 454.74 448.29 455.03 448.20 451.99 449.28 C 448.94 450.36 448.74 450.45 447.47 450.91" stroke="url(#strandBack)" stroke-width="17" stroke-linecap="round" stroke-linejoin="round" fill="none"/>
    <path d="M 576.53 450.91 C 576.99 451.08 576.05 450.72 578.19 451.52 C 580.33 452.32 580.88 452.51 584.17 453.76 C 587.45 455.01 586.77 454.75 589.92 456.00 C 593.08 457.25 592.42 456.99 595.43 458.24 C 598.45 459.49 597.82 459.23 600.69 460.48 C 603.56 461.73 602.96 461.47 605.67 462.72 C 608.38 463.97 607.82 463.71 610.37 464.96 C 612.91 466.21 612.39 465.95 614.76 467.20 C 617.13 468.45 616.65 468.19 618.84 469.44 C 621.03 470.69 620.58 470.43 622.58 471.68 C 624.58 472.93 624.18 472.67 625.99 473.92 C 627.80 475.17 627.43 474.91 629.04 476.16 C 630.65 477.41 630.33 477.15 631.74 478.40 C 633.14 479.65 632.87 479.39 634.06 480.64 C 635.26 481.89 635.03 481.63 636.01 482.88 C 637.00 484.13 636.81 483.87 637.58 485.12 C 638.35 486.37 638.21 486.11 638.76 487.36 C 639.31 488.61 639.22 488.35 639.55 489.60 C 639.88 490.85 639.84 490.59 639.95 491.84 C 640.06 493.09 640.06 492.83 639.95 494.08 C 639.84 495.33 639.89 495.07 639.56 496.32 C 639.23 497.57 639.33 497.31 638.78 498.56 C 638.23 499.81 638.37 499.55 637.61 500.80 C 636.84 502.05 637.03 501.79 636.05 503.04 C 635.06 504.29 635.30 504.03 634.10 505.28 C 632.91 506.53 633.19 506.27 631.78 507.52 C 630.38 508.77 630.70 508.51 629.10 509.76 C 627.49 511.01 626.90 511.37 626.05 512.00" stroke="url(#strandBack)" stroke-width="17" stroke-linecap="round" stroke-linejoin="round" fill="none"/>
    <path d="M 397.95 512.00 C 398.90 512.63 399.35 512.99 401.35 514.24 C 403.35 515.49 402.90 515.23 405.09 516.48 C 407.28 517.73 406.79 517.47 409.16 518.72 C 411.53 519.97 411.00 519.71 413.55 520.96 C 416.09 522.21 415.53 521.95 418.23 523.20 C 420.94 524.45 420.35 524.19 423.21 525.44 C 426.08 526.69 425.45 526.43 428.46 527.68 C 431.48 528.93 430.82 528.67 433.97 529.92 C 437.12 531.17 436.44 530.91 439.72 532.16 C 443.00 533.41 442.29 533.15 445.69 534.40 C 449.09 535.65 448.36 535.39 451.87 536.64 C 455.38 537.89 454.62 537.63 458.23 538.88 C 461.84 540.13 461.06 539.87 464.76 541.12 C 468.45 542.37 467.66 542.11 471.43 543.36 C 475.20 544.61 474.39 544.35 478.22 545.60 C 482.06 546.85 481.24 546.59 485.13 547.84 C 489.01 549.09 488.18 548.83 492.11 550.08 C 496.04 551.33 495.20 551.07 499.15 552.32 C 503.11 553.57 502.27 553.31 506.24 554.56 C 510.21 555.81 509.36 555.55 513.34 556.80 C 517.32 558.05 516.47 557.79 520.44 559.04 C 524.41 560.29 523.56 560.03 527.51 561.28 C 531.46 562.53 530.62 562.27 534.53 563.52 C 538.45 564.77 537.62 564.51 541.49 565.76 C 545.36 567.01 544.54 566.75 548.35 568.00 C 552.17 569.25 551.36 568.99 555.11 570.24 C 558.85 571.49 559.37 571.68 561.73 572.48 C 564.08 573.28 563.01 572.92 563.51 573.09" stroke="url(#strandBack)" stroke-width="17" stroke-linecap="round" stroke-linejoin="round" fill="none"/>
    <path d="M 460.49 573.09 C 459.18 573.55 458.88 573.64 455.81 574.72 C 452.73 575.80 452.99 575.71 449.51 576.96 C 446.04 578.21 446.77 577.95 443.41 579.20 C 440.06 580.45 440.76 580.19 437.52 581.44 C 434.29 582.69 434.96 582.43 431.86 583.68 C 428.76 584.93 429.41 584.67 426.45 585.92 C 423.49 587.17 424.11 586.91 421.30 588.16 C 418.50 589.41 419.08 589.15 416.43 590.40 C 413.79 591.65 414.33 591.39 411.85 592.64 C 409.38 593.89 409.89 593.63 407.59 594.88 C 405.29 596.13 405.76 595.87 403.64 597.12 C 401.52 598.37 401.95 598.11 400.03 599.36 C 398.10 600.61 398.49 600.35 396.76 601.60 C 395.03 602.85 395.38 602.59 393.85 603.84 C 392.32 605.09 392.62 604.83 391.30 606.08 C 389.97 607.33 390.23 607.07 389.12 608.32 C 388.01 609.57 388.22 609.31 387.32 610.56 C 386.42 611.81 386.59 611.55 385.91 612.80 C 385.22 614.05 385.34 613.79 384.88 615.04 C 384.41 616.29 384.49 616.03 384.24 617.28 C 384.00 618.53 384.03 618.27 384.00 619.52 C 383.98 620.77 383.96 620.51 384.16 621.76 C 384.35 623.01 384.29 622.75 384.70 624.00 C 385.12 625.25 385.01 624.99 385.64 626.24 C 386.27 627.49 386.12 627.23 386.97 628.48 C 387.82 629.73 387.61 629.47 388.68 630.72 C 389.74 631.97 389.82 631.99 390.77 632.96 C 391.72 633.93 391.71 633.84 392.07 634.18" stroke="url(#strandBack)" stroke-width="17" stroke-linecap="round" stroke-linejoin="round" fill="none"/>
    <path d="M 631.93 634.18 C 631.60 634.47 631.88 634.29 630.76 635.20 C 629.64 636.11 629.62 636.19 627.93 637.44 C 626.25 638.69 626.63 638.43 624.74 639.68 C 622.86 640.93 623.28 640.67 621.21 641.92 C 619.13 643.17 619.60 642.91 617.34 644.16 C 615.08 645.41 615.58 645.15 613.14 646.40 C 610.70 647.65 611.24 647.39 608.63 648.64 C 606.02 649.89 606.60 649.63 603.83 650.88 C 601.06 652.13 601.66 651.87 598.74 653.12 C 595.81 654.37 596.45 654.11 593.38 655.36 C 590.31 656.61 590.98 656.35 587.78 657.60 C 584.57 658.85 585.27 658.59 581.94 659.84 C 578.61 661.09 579.33 660.83 575.88 662.08 C 572.44 663.33 573.18 663.07 569.63 664.32 C 566.08 665.57 566.85 665.31 563.20 666.56 C 559.56 667.81 560.34 667.55 556.62 668.80 C 552.89 670.05 553.69 669.79 549.89 671.04 C 546.10 672.29 546.91 672.03 543.05 673.28 C 539.20 674.53 540.02 674.27 536.12 675.52 C 532.21 676.77 533.05 676.51 529.11 677.76 C 525.17 679.01 526.01 678.75 522.04 680.00 C 518.08 681.25 518.92 680.99 514.95 682.24 C 510.97 683.49 511.82 683.23 507.85 684.48 C 503.87 685.73 504.72 685.47 500.76 686.72 C 496.79 687.97 497.63 687.71 493.70 688.96 C 489.76 690.21 490.60 689.95 486.70 691.20 C 482.80 692.45 483.28 692.30 479.78 693.44 C 476.28 694.58 475.75 694.76 474.19 695.27" stroke="url(#strandBack)" stroke-width="17" stroke-linecap="round" stroke-linejoin="round" fill="none"/>
    <path d="M 549.81 695.27 C 550.16 695.39 548.82 694.94 551.04 695.68 C 553.27 696.42 554.03 696.67 557.75 697.92 C 561.46 699.17 560.68 698.91 564.31 700.16 C 567.94 701.41 567.17 701.15 570.71 702.40 C 574.24 703.65 573.50 703.39 576.93 704.64 C 580.35 705.89 579.64 705.63 582.95 706.88 C 586.26 708.13 585.56 707.87 588.75 709.12 C 591.93 710.37 591.27 710.11 594.31 711.36 C 597.36 712.61 596.72 712.35 599.62 713.60 C 602.52 714.85 601.92 714.59 604.66 715.84 C 607.41 717.09 606.84 716.83 609.42 718.08 C 612.00 719.33 611.47 719.07 613.87 720.32 C 616.28 721.57 615.79 721.31 618.02 722.56 C 620.24 723.81 619.79 723.55 621.83 724.80 C 623.87 726.05 623.46 725.79 625.31 727.04 C 627.16 728.29 626.79 728.03 628.44 729.28 C 630.09 730.53 629.76 730.27 631.21 731.52 C 632.66 732.77 632.37 732.51 633.61 733.76 C 634.85 735.01 634.61 734.75 635.64 736.00 C 636.67 737.25 636.47 736.99 637.29 738.24 C 638.10 739.49 637.95 739.23 638.55 740.48 C 639.14 741.73 639.04 741.47 639.42 742.72 C 639.80 743.97 639.74 743.71 639.90 744.96 C 640.06 746.21 640.05 745.95 639.98 747.20 C 639.92 748.45 639.96 748.19 639.68 749.44 C 639.39 750.69 639.48 750.43 638.97 751.68 C 638.47 752.93 638.60 752.67 637.88 753.92 C 637.16 755.17 636.86 755.48 636.40 756.16 C 635.94 756.84 636.29 756.31 636.25 756.36" stroke="url(#strandBack)" stroke-width="17" stroke-linecap="round" stroke-linejoin="round" fill="none"/>
    <path d="M 387.75 756.36 C 388.23 756.93 388.36 757.20 389.46 758.40 C 390.57 759.60 390.35 759.39 391.70 760.64 C 393.06 761.89 392.75 761.63 394.32 762.88 C 395.88 764.13 395.53 763.87 397.29 765.12 C 399.05 766.37 398.66 766.11 400.62 767.36 C 402.58 768.61 402.14 768.35 404.29 769.60 C 406.43 770.85 405.96 770.59 408.29 771.84 C 410.62 773.09 410.10 772.83 412.61 774.08 C 415.12 775.33 414.56 775.07 417.24 776.32 C 419.91 777.57 419.32 777.31 422.16 778.56 C 424.99 779.81 424.37 779.55 427.35 780.80 C 430.33 782.05 429.68 781.79 432.81 783.04 C 435.93 784.29 435.25 784.03 438.51 785.28 C 441.76 786.53 441.06 786.27 444.44 787.52 C 447.81 788.77 447.08 788.51 450.57 789.76 C 454.06 791.01 453.31 790.75 456.89 792.00 C 460.48 793.25 459.71 792.99 463.39 794.24 C 467.07 795.49 466.28 795.23 470.03 796.48 C 473.79 797.73 472.98 797.47 476.80 798.72 C 480.63 799.97 479.81 799.71 483.69 800.96 C 487.56 802.21 486.73 801.95 490.65 803.20 C 494.57 804.45 493.74 804.19 497.69 805.44 C 501.64 806.69 500.80 806.43 504.77 807.68 C 508.74 808.93 507.89 808.67 511.87 809.92 C 515.84 811.17 515.00 810.91 518.97 812.16 C 522.94 813.41 522.09 813.15 526.05 814.40 C 530.00 815.65 530.40 815.78 533.08 816.64 C 535.76 817.50 534.91 817.23 535.63 817.45" stroke="url(#strandBack)" stroke-width="17" stroke-linecap="round" stroke-linejoin="round" fill="none"/>
    <path d="M 488.37 817.45 C 487.13 817.85 487.11 817.85 483.95 818.88 C 480.78 819.91 480.89 819.87 477.06 821.12 C 473.24 822.37 474.04 822.11 470.29 823.36 C 466.53 824.61 467.32 824.35 463.64 825.60 C 459.95 826.85 460.73 826.59 457.14 827.84 C 453.54 829.09 454.30 828.83 450.81 830.08 C 447.31 831.33 448.05 831.07 444.66 832.32 C 441.28 833.57 441.99 833.31 438.73 834.56 C 435.47 835.81 436.15 835.55 433.02 836.80 C 429.89 838.05 430.54 837.79 427.55 839.04 C 424.57 840.29 425.19 840.03 422.35 841.28 C 419.51 842.53 420.10 842.27 417.42 843.52 C 414.74 844.77 415.29 844.51 412.78 845.76 C 410.27 847.01 409.66 847.37 408.45 848.00" stroke="url(#strandBack)" stroke-width="17" stroke-linecap="round" stroke-linejoin="round" fill="none"/>
    <g>    <line x1="599.9" y1="206.5" x2="424.1" y2="206.5" stroke="#34d399" stroke-width="2.8" stroke-linecap="round" opacity="0.35"/>
    <line x1="599.9" y1="206.5" x2="424.1" y2="206.5" stroke="#ecfdf5" stroke-width="1.4" stroke-linecap="round" opacity="0.5"/>
    <line x1="609.9" y1="267.6" x2="414.1" y2="267.6" stroke="#34d399" stroke-width="2.8" stroke-linecap="round" opacity="0.35"/>
    <line x1="609.9" y1="267.6" x2="414.1" y2="267.6" stroke="#ecfdf5" stroke-width="1.4" stroke-linecap="round" opacity="0.5"/>
    <line x1="435.3" y1="328.7" x2="588.7" y2="328.7" stroke="#34d399" stroke-width="2.8" stroke-linecap="round" opacity="0.35"/>
    <line x1="435.3" y1="328.7" x2="588.7" y2="328.7" stroke="#ecfdf5" stroke-width="1.4" stroke-linecap="round" opacity="0.5"/>
    <line x1="405.3" y1="389.8" x2="618.7" y2="389.8" stroke="#34d399" stroke-width="2.8" stroke-linecap="round" opacity="0.35"/>
    <line x1="405.3" y1="389.8" x2="618.7" y2="389.8" stroke="#ecfdf5" stroke-width="1.4" stroke-linecap="round" opacity="0.5"/>
    <line x1="576.5" y1="450.9" x2="447.5" y2="450.9" stroke="#34d399" stroke-width="2.8" stroke-linecap="round" opacity="0.35"/>
    <line x1="576.5" y1="450.9" x2="447.5" y2="450.9" stroke="#ecfdf5" stroke-width="1.4" stroke-linecap="round" opacity="0.5"/>
    <line x1="626.0" y1="512.0" x2="398.0" y2="512.0" stroke="#34d399" stroke-width="2.8" stroke-linecap="round" opacity="0.35"/>
    <line x1="626.0" y1="512.0" x2="398.0" y2="512.0" stroke="#ecfdf5" stroke-width="1.4" stroke-linecap="round" opacity="0.5"/>
    <line x1="460.5" y1="573.1" x2="563.5" y2="573.1" stroke="#34d399" stroke-width="2.8" stroke-linecap="round" opacity="0.35"/>
    <line x1="460.5" y1="573.1" x2="563.5" y2="573.1" stroke="#ecfdf5" stroke-width="1.4" stroke-linecap="round" opacity="0.5"/>
    <line x1="392.1" y1="634.2" x2="631.9" y2="634.2" stroke="#34d399" stroke-width="2.8" stroke-linecap="round" opacity="0.35"/>
    <line x1="392.1" y1="634.2" x2="631.9" y2="634.2" stroke="#ecfdf5" stroke-width="1.4" stroke-linecap="round" opacity="0.5"/>
    <line x1="549.8" y1="695.3" x2="474.2" y2="695.3" stroke="#34d399" stroke-width="2.8" stroke-linecap="round" opacity="0.35"/>
    <line x1="549.8" y1="695.3" x2="474.2" y2="695.3" stroke="#ecfdf5" stroke-width="1.4" stroke-linecap="round" opacity="0.5"/>
    <line x1="636.2" y1="756.4" x2="387.8" y2="756.4" stroke="#34d399" stroke-width="2.8" stroke-linecap="round" opacity="0.35"/>
    <line x1="636.2" y1="756.4" x2="387.8" y2="756.4" stroke="#ecfdf5" stroke-width="1.4" stroke-linecap="round" opacity="0.5"/>
    <line x1="488.4" y1="817.5" x2="535.6" y2="817.5" stroke="#34d399" stroke-width="2.8" stroke-linecap="round" opacity="0.35"/>
    <line x1="488.4" y1="817.5" x2="535.6" y2="817.5" stroke="#ecfdf5" stroke-width="1.4" stroke-linecap="round" opacity="0.5"/></g>
    <path d="M 512.00 176.00 C 513.99 176.63 515.13 176.99 519.10 178.24 C 523.07 179.49 522.23 179.23 526.18 180.48 C 530.13 181.73 529.29 181.47 533.21 182.72 C 537.14 183.97 536.31 183.71 540.18 184.96 C 544.06 186.21 543.24 185.95 547.07 187.20 C 550.89 188.45 550.08 188.19 553.84 189.44 C 557.60 190.69 556.81 190.43 560.49 191.68 C 564.17 192.93 563.39 192.67 566.98 193.92 C 570.58 195.17 569.82 194.91 573.31 196.16 C 576.80 197.41 576.07 197.15 579.45 198.40 C 582.83 199.65 582.12 199.39 585.38 200.64 C 588.64 201.89 587.96 201.63 591.09 202.88 C 594.21 204.13 594.08 204.09 596.55 205.12 C 599.01 206.15 598.95 206.15 599.89 206.55" stroke="url(#strandFront)" stroke-width="17" stroke-linecap="round" stroke-linejoin="round" fill="none" filter="url(#strandShadow)"/>
    <path d="M 424.11 206.55 C 423.59 206.77 424.15 206.50 422.25 207.36 C 420.35 208.22 420.00 208.35 417.33 209.60 C 414.65 210.85 415.20 210.59 412.69 211.84 C 410.19 213.09 410.70 212.83 408.37 214.08 C 406.03 215.33 406.51 215.07 404.36 216.32 C 402.21 217.57 402.65 217.31 400.68 218.56 C 398.72 219.81 399.12 219.55 397.35 220.80 C 395.58 222.05 395.94 221.79 394.37 223.04 C 392.80 224.29 393.11 224.03 391.75 225.28 C 390.39 226.53 390.66 226.27 389.50 227.52 C 388.35 228.77 388.57 228.51 387.63 229.76 C 386.69 231.01 386.87 230.75 386.14 232.00 C 385.42 233.25 385.55 232.99 385.04 234.24 C 384.54 235.49 384.62 235.23 384.33 236.48 C 384.05 237.73 384.08 237.47 384.02 238.72 C 383.95 239.97 383.94 239.71 384.10 240.96 C 384.25 242.21 384.19 241.95 384.57 243.20 C 384.94 244.45 384.84 244.19 385.43 245.44 C 386.03 246.69 385.88 246.43 386.69 247.68 C 387.50 248.93 387.30 248.67 388.33 249.92 C 389.35 251.17 389.11 250.91 390.35 252.16 C 391.58 253.41 391.30 253.15 392.74 254.40 C 394.19 255.65 393.86 255.39 395.51 256.64 C 397.15 257.89 396.78 257.63 398.63 258.88 C 400.47 260.13 400.06 259.87 402.10 261.12 C 404.14 262.37 403.68 262.11 405.91 263.36 C 408.13 264.61 407.76 264.40 410.04 265.60 C 412.33 266.80 412.95 267.07 414.08 267.64" stroke="url(#strandFront)" stroke-width="17" stroke-linecap="round" stroke-linejoin="round" fill="none" filter="url(#strandShadow)"/>
    <path d="M 609.92 267.64 C 609.81 267.69 610.95 267.16 609.51 267.84 C 608.06 268.52 607.50 268.83 604.76 270.08 C 602.02 271.33 602.62 271.07 599.72 272.32 C 596.82 273.57 597.46 273.31 594.41 274.56 C 591.37 275.81 592.03 275.55 588.85 276.80 C 585.67 278.05 586.36 277.79 583.06 279.04 C 579.75 280.29 580.47 280.03 577.04 281.28 C 573.62 282.53 574.36 282.27 570.83 283.52 C 567.29 284.77 568.06 284.51 564.43 285.76 C 560.80 287.01 561.58 286.75 557.87 288.00 C 554.16 289.25 554.96 288.99 551.17 290.24 C 547.39 291.49 548.20 291.23 544.35 292.48 C 540.50 293.73 541.33 293.47 537.43 294.72 C 533.53 295.97 534.37 295.71 530.43 296.96 C 526.50 298.21 527.34 297.95 523.38 299.20 C 519.42 300.45 520.26 300.19 516.29 301.44 C 512.31 302.69 513.16 302.43 509.19 303.68 C 505.21 304.93 506.06 304.67 502.09 305.92 C 498.13 307.17 498.97 306.91 495.03 308.16 C 491.09 309.41 491.92 309.15 488.02 310.40 C 484.11 311.65 484.94 311.39 481.08 312.64 C 477.22 313.89 478.03 313.63 474.23 314.88 C 470.44 316.13 471.24 315.87 467.51 317.12 C 463.78 318.37 464.57 318.11 460.92 319.36 C 457.27 320.61 458.04 320.35 454.49 321.60 C 450.93 322.85 451.68 322.59 448.23 323.84 C 444.78 325.09 445.51 324.83 442.17 326.08 C 438.84 327.33 438.26 327.58 436.33 328.32 C 434.40 329.06 435.58 328.61 435.29 328.73" stroke="url(#strandFront)" stroke-width="17" stroke-linecap="round" stroke-linejoin="round" fill="none" filter="url(#strandShadow)"/>
    <path d="M 588.71 328.73 C 589.99 329.24 590.50 329.42 593.28 330.56 C 596.06 331.70 595.71 331.55 598.64 332.80 C 601.57 334.05 600.96 333.79 603.73 335.04 C 606.51 336.29 605.93 336.03 608.54 337.28 C 611.15 338.53 610.62 338.27 613.06 339.52 C 615.50 340.77 615.00 340.51 617.26 341.76 C 619.52 343.01 619.06 342.75 621.14 344.00 C 623.22 345.25 622.79 344.99 624.68 346.24 C 626.57 347.49 626.19 347.23 627.87 348.48 C 629.56 349.73 629.23 349.47 630.71 350.72 C 632.20 351.97 631.91 351.71 633.19 352.96 C 634.47 354.21 634.22 353.95 635.28 355.20 C 636.35 356.45 636.15 356.19 637.00 357.44 C 637.86 358.69 637.70 358.43 638.34 359.68 C 638.98 360.93 638.86 360.67 639.28 361.92 C 639.70 363.17 639.64 362.91 639.84 364.16 C 640.04 365.41 640.02 365.15 640.00 366.40 C 639.98 367.65 640.01 367.39 639.76 368.64 C 639.52 369.89 639.60 369.63 639.14 370.88 C 638.68 372.13 638.80 371.87 638.12 373.12 C 637.44 374.37 637.61 374.11 636.71 375.36 C 635.81 376.61 636.03 376.35 634.92 377.60 C 633.81 378.85 634.07 378.59 632.75 379.84 C 631.43 381.09 631.73 380.83 630.21 382.08 C 628.68 383.33 629.03 383.07 627.30 384.32 C 625.57 385.57 625.96 385.31 624.04 386.56 C 622.11 387.81 621.93 387.89 620.43 388.80 C 618.93 389.71 619.17 389.53 618.68 389.82" stroke="url(#strandFront)" stroke-width="17" stroke-linecap="round" stroke-linejoin="round" fill="none" filter="url(#strandShadow)"/>
    <path d="M 405.32 389.82 C 405.93 390.16 405.70 390.07 407.51 391.04 C 409.32 392.01 409.30 392.03 411.77 393.28 C 414.24 394.53 413.70 394.27 416.34 395.52 C 418.98 396.77 418.40 396.51 421.21 397.76 C 424.01 399.01 423.40 398.75 426.35 400.00 C 429.31 401.25 428.66 400.99 431.76 402.24 C 434.86 403.49 434.18 403.23 437.42 404.48 C 440.65 405.73 439.95 405.47 443.30 406.72 C 446.66 407.97 445.93 407.71 449.40 408.96 C 452.87 410.21 452.12 409.95 455.69 411.20 C 459.26 412.45 458.49 412.19 462.15 413.44 C 465.81 414.69 465.03 414.43 468.77 415.68 C 472.51 416.93 471.71 416.67 475.52 417.92 C 479.33 419.17 478.51 418.91 482.38 420.16 C 486.25 421.41 485.42 421.15 489.33 422.40 C 493.25 423.65 492.41 423.39 496.36 424.64 C 500.30 425.89 499.46 425.63 503.43 426.88 C 507.40 428.13 506.55 427.87 510.53 429.12 C 514.50 430.37 513.66 430.11 517.63 431.36 C 521.60 432.61 520.76 432.35 524.71 433.60 C 528.67 434.85 527.83 434.59 531.76 435.84 C 535.69 437.09 534.86 436.83 538.74 438.08 C 542.63 439.33 541.81 439.07 545.65 440.32 C 549.48 441.57 548.67 441.31 552.45 442.56 C 556.22 443.81 555.42 443.55 559.12 444.80 C 562.82 446.05 562.04 445.79 565.65 447.04 C 569.26 448.29 568.97 448.20 572.01 449.28 C 575.06 450.36 575.26 450.45 576.53 450.91" stroke="url(#strandFront)" stroke-width="17" stroke-linecap="round" stroke-linejoin="round" fill="none" filter="url(#strandShadow)"/>
    <path d="M 447.47 450.91 C 447.01 451.08 447.95 450.72 445.81 451.52 C 443.67 452.32 443.12 452.51 439.83 453.76 C 436.55 455.01 437.23 454.75 434.08 456.00 C 430.92 457.25 431.58 456.99 428.57 458.24 C 425.55 459.49 426.18 459.23 423.31 460.48 C 420.44 461.73 421.04 461.47 418.33 462.72 C 415.62 463.97 416.18 463.71 413.63 464.96 C 411.09 466.21 411.61 465.95 409.24 467.20 C 406.87 468.45 407.35 468.19 405.16 469.44 C 402.97 470.69 403.42 470.43 401.42 471.68 C 399.42 472.93 399.82 472.67 398.01 473.92 C 396.20 475.17 396.57 474.91 394.96 476.16 C 393.35 477.41 393.67 477.15 392.26 478.40 C 390.86 479.65 391.13 479.39 389.94 480.64 C 388.74 481.89 388.97 481.63 387.99 482.88 C 387.00 484.13 387.19 483.87 386.42 485.12 C 385.65 486.37 385.79 486.11 385.24 487.36 C 384.69 488.61 384.78 488.35 384.45 489.60 C 384.12 490.85 384.16 490.59 384.05 491.84 C 383.94 493.09 383.94 492.83 384.05 494.08 C 384.16 495.33 384.11 495.07 384.44 496.32 C 384.77 497.57 384.67 497.31 385.22 498.56 C 385.77 499.81 385.63 499.55 386.39 500.80 C 387.16 502.05 386.97 501.79 387.95 503.04 C 388.94 504.29 388.70 504.03 389.90 505.28 C 391.09 506.53 390.81 506.27 392.22 507.52 C 393.62 508.77 393.30 508.51 394.90 509.76 C 396.51 511.01 397.10 511.37 397.95 512.00" stroke="url(#strandFront)" stroke-width="17" stroke-linecap="round" stroke-linejoin="round" fill="none" filter="url(#strandShadow)"/>
    <path d="M 626.05 512.00 C 625.10 512.63 624.65 512.99 622.65 514.24 C 620.65 515.49 621.10 515.23 618.91 516.48 C 616.72 517.73 617.21 517.47 614.84 518.72 C 612.47 519.97 613.00 519.71 610.45 520.96 C 607.91 522.21 608.47 521.95 605.77 523.20 C 603.06 524.45 603.65 524.19 600.79 525.44 C 597.92 526.69 598.55 526.43 595.54 527.68 C 592.52 528.93 593.18 528.67 590.03 529.92 C 586.88 531.17 587.56 530.91 584.28 532.16 C 581.00 533.41 581.71 533.15 578.31 534.40 C 574.91 535.65 575.64 535.39 572.13 536.64 C 568.62 537.89 569.38 537.63 565.77 538.88 C 562.16 540.13 562.94 539.87 559.24 541.12 C 555.55 542.37 556.34 542.11 552.57 543.36 C 548.80 544.61 549.61 544.35 545.78 545.60 C 541.94 546.85 542.76 546.59 538.87 547.84 C 534.99 549.09 535.82 548.83 531.89 550.08 C 527.96 551.33 528.80 551.07 524.85 552.32 C 520.89 553.57 521.73 553.31 517.76 554.56 C 513.79 555.81 514.64 555.55 510.66 556.80 C 506.68 558.05 507.53 557.79 503.56 559.04 C 499.59 560.29 500.44 560.03 496.49 561.28 C 492.54 562.53 493.38 562.27 489.47 563.52 C 485.55 564.77 486.38 564.51 482.51 565.76 C 478.64 567.01 479.46 566.75 475.65 568.00 C 471.83 569.25 472.64 568.99 468.89 570.24 C 465.15 571.49 464.63 571.68 462.27 572.48 C 459.92 573.28 460.99 572.92 460.49 573.09" stroke="url(#strandFront)" stroke-width="17" stroke-linecap="round" stroke-linejoin="round" fill="none" filter="url(#strandShadow)"/>
    <path d="M 563.51 573.09 C 564.82 573.55 565.12 573.64 568.19 574.72 C 571.27 575.80 571.01 575.71 574.49 576.96 C 577.96 578.21 577.23 577.95 580.59 579.20 C 583.94 580.45 583.24 580.19 586.48 581.44 C 589.71 582.69 589.04 582.43 592.14 583.68 C 595.24 584.93 594.59 584.67 597.55 585.92 C 600.51 587.17 599.89 586.91 602.70 588.16 C 605.50 589.41 604.92 589.15 607.57 590.40 C 610.21 591.65 609.67 591.39 612.15 592.64 C 614.62 593.89 614.11 593.63 616.41 594.88 C 618.71 596.13 618.24 595.87 620.36 597.12 C 622.48 598.37 622.05 598.11 623.97 599.36 C 625.90 600.61 625.51 600.35 627.24 601.60 C 628.97 602.85 628.62 602.59 630.15 603.84 C 631.68 605.09 631.38 604.83 632.70 606.08 C 634.03 607.33 633.77 607.07 634.88 608.32 C 635.99 609.57 635.78 609.31 636.68 610.56 C 637.58 611.81 637.41 611.55 638.09 612.80 C 638.78 614.05 638.66 613.79 639.12 615.04 C 639.59 616.29 639.51 616.03 639.76 617.28 C 640.00 618.53 639.97 618.27 640.00 619.52 C 640.02 620.77 640.04 620.51 639.84 621.76 C 639.65 623.01 639.71 622.75 639.30 624.00 C 638.88 625.25 638.99 624.99 638.36 626.24 C 637.73 627.49 637.88 627.23 637.03 628.48 C 636.18 629.73 636.39 629.47 635.32 630.72 C 634.26 631.97 634.18 631.99 633.23 632.96 C 632.28 633.93 632.29 633.84 631.93 634.18" stroke="url(#strandFront)" stroke-width="17" stroke-linecap="round" stroke-linejoin="round" fill="none" filter="url(#strandShadow)"/>
    <path d="M 392.07 634.18 C 392.40 634.47 392.12 634.29 393.24 635.20 C 394.36 636.11 394.38 636.19 396.07 637.44 C 397.75 638.69 397.37 638.43 399.26 639.68 C 401.14 640.93 400.72 640.67 402.79 641.92 C 404.87 643.17 404.40 642.91 406.66 644.16 C 408.92 645.41 408.42 645.15 410.86 646.40 C 413.30 647.65 412.76 647.39 415.37 648.64 C 417.98 649.89 417.40 649.63 420.17 650.88 C 422.94 652.13 422.34 651.87 425.26 653.12 C 428.19 654.37 427.55 654.11 430.62 655.36 C 433.69 656.61 433.02 656.35 436.22 657.60 C 439.43 658.85 438.73 658.59 442.06 659.84 C 445.39 661.09 444.67 660.83 448.12 662.08 C 451.56 663.33 450.82 663.07 454.37 664.32 C 457.92 665.57 457.15 665.31 460.80 666.56 C 464.44 667.81 463.66 667.55 467.38 668.80 C 471.11 670.05 470.31 669.79 474.11 671.04 C 477.90 672.29 477.09 672.03 480.95 673.28 C 484.80 674.53 483.98 674.27 487.88 675.52 C 491.79 676.77 490.95 676.51 494.89 677.76 C 498.83 679.01 497.99 678.75 501.96 680.00 C 505.92 681.25 505.08 680.99 509.05 682.24 C 513.03 683.49 512.18 683.23 516.15 684.48 C 520.13 685.73 519.28 685.47 523.24 686.72 C 527.21 687.97 526.37 687.71 530.30 688.96 C 534.24 690.21 533.40 689.95 537.30 691.20 C 541.20 692.45 540.72 692.30 544.22 693.44 C 547.72 694.58 548.25 694.76 549.81 695.27" stroke="url(#strandFront)" stroke-width="17" stroke-linecap="round" stroke-linejoin="round" fill="none" filter="url(#strandShadow)"/>
    <path d="M 474.19 695.27 C 473.84 695.39 475.18 694.94 472.96 695.68 C 470.73 696.42 469.97 696.67 466.25 697.92 C 462.54 699.17 463.32 698.91 459.69 700.16 C 456.06 701.41 456.83 701.15 453.29 702.40 C 449.76 703.65 450.50 703.39 447.07 704.64 C 443.65 705.89 444.36 705.63 441.05 706.88 C 437.74 708.13 438.44 707.87 435.25 709.12 C 432.07 710.37 432.73 710.11 429.69 711.36 C 426.64 712.61 427.28 712.35 424.38 713.60 C 421.48 714.85 422.08 714.59 419.34 715.84 C 416.59 717.09 417.16 716.83 414.58 718.08 C 412.00 719.33 412.53 719.07 410.13 720.32 C 407.72 721.57 408.21 721.31 405.98 722.56 C 403.76 723.81 404.21 723.55 402.17 724.80 C 400.13 726.05 400.54 725.79 398.69 727.04 C 396.84 728.29 397.21 728.03 395.56 729.28 C 393.91 730.53 394.24 730.27 392.79 731.52 C 391.34 732.77 391.63 732.51 390.39 733.76 C 389.15 735.01 389.39 734.75 388.36 736.00 C 387.33 737.25 387.53 736.99 386.71 738.24 C 385.90 739.49 386.05 739.23 385.45 740.48 C 384.86 741.73 384.96 741.47 384.58 742.72 C 384.20 743.97 384.26 743.71 384.10 744.96 C 383.94 746.21 383.95 745.95 384.02 747.20 C 384.08 748.45 384.04 748.19 384.32 749.44 C 384.61 750.69 384.52 750.43 385.03 751.68 C 385.53 752.93 385.40 752.67 386.12 753.92 C 386.84 755.17 387.14 755.48 387.60 756.16 C 388.06 756.84 387.71 756.31 387.75 756.36" stroke="url(#strandFront)" stroke-width="17" stroke-linecap="round" stroke-linejoin="round" fill="none" filter="url(#strandShadow)"/>
    <path d="M 636.25 756.36 C 635.77 756.93 635.64 757.20 634.54 758.40 C 633.43 759.60 633.65 759.39 632.30 760.64 C 630.94 761.89 631.25 761.63 629.68 762.88 C 628.12 764.13 628.47 763.87 626.71 765.12 C 624.95 766.37 625.34 766.11 623.38 767.36 C 621.42 768.61 621.86 768.35 619.71 769.60 C 617.57 770.85 618.04 770.59 615.71 771.84 C 613.38 773.09 613.90 772.83 611.39 774.08 C 608.88 775.33 609.44 775.07 606.76 776.32 C 604.09 777.57 604.68 777.31 601.84 778.56 C 599.01 779.81 599.63 779.55 596.65 780.80 C 593.67 782.05 594.32 781.79 591.19 783.04 C 588.07 784.29 588.75 784.03 585.49 785.28 C 582.24 786.53 582.94 786.27 579.56 787.52 C 576.19 788.77 576.92 788.51 573.43 789.76 C 569.94 791.01 570.69 790.75 567.11 792.00 C 563.52 793.25 564.29 792.99 560.61 794.24 C 556.93 795.49 557.72 795.23 553.97 796.48 C 550.21 797.73 551.02 797.47 547.20 798.72 C 543.37 799.97 544.19 799.71 540.31 800.96 C 536.44 802.21 537.27 801.95 533.35 803.20 C 529.43 804.45 530.26 804.19 526.31 805.44 C 522.36 806.69 523.20 806.43 519.23 807.68 C 515.26 808.93 516.11 808.67 512.13 809.92 C 508.16 811.17 509.00 810.91 505.03 812.16 C 501.06 813.41 501.91 813.15 497.95 814.40 C 494.00 815.65 493.60 815.78 490.92 816.64 C 488.24 817.50 489.09 817.23 488.37 817.45" stroke="url(#strandFront)" stroke-width="17" stroke-linecap="round" stroke-linejoin="round" fill="none" filter="url(#strandShadow)"/>
    <path d="M 535.63 817.45 C 536.87 817.85 536.89 817.85 540.05 818.88 C 543.22 819.91 543.11 819.87 546.94 821.12 C 550.76 822.37 549.96 822.11 553.71 823.36 C 557.47 824.61 556.68 824.35 560.36 825.60 C 564.05 826.85 563.27 826.59 566.86 827.84 C 570.46 829.09 569.70 828.83 573.19 830.08 C 576.69 831.33 575.95 831.07 579.34 832.32 C 582.72 833.57 582.01 833.31 585.27 834.56 C 588.53 835.81 587.85 835.55 590.98 836.80 C 594.11 838.05 593.46 837.79 596.45 839.04 C 599.43 840.29 598.81 840.03 601.65 841.28 C 604.49 842.53 603.90 842.27 606.58 843.52 C 609.26 844.77 608.71 844.51 611.22 845.76 C 613.73 847.01 614.34 847.37 615.55 848.00" stroke="url(#strandFront)" stroke-width="17" stroke-linecap="round" stroke-linejoin="round" fill="none" filter="url(#strandShadow)"/>
    <path d="M 512.00 176.00 C 513.99 176.63 515.13 176.99 519.10 178.24 C 523.07 179.49 522.23 179.23 526.18 180.48 C 530.13 181.73 529.29 181.47 533.21 182.72 C 537.14 183.97 536.31 183.71 540.18 184.96 C 544.06 186.21 543.24 185.95 547.07 187.20 C 550.89 188.45 550.08 188.19 553.84 189.44 C 557.60 190.69 556.81 190.43 560.49 191.68 C 564.17 192.93 563.39 192.67 566.98 193.92 C 570.58 195.17 569.82 194.91 573.31 196.16 C 576.80 197.41 576.07 197.15 579.45 198.40 C 582.83 199.65 582.12 199.39 585.38 200.64 C 588.64 201.89 587.96 201.63 591.09 202.88 C 594.21 204.13 594.08 204.09 596.55 205.12 C 599.01 206.15 598.95 206.15 599.89 206.55" stroke="#ffffff" stroke-width="4" stroke-linecap="round" stroke-linejoin="round" fill="none" opacity="0.22"/>
    <path d="M 424.11 206.55 C 423.59 206.77 424.15 206.50 422.25 207.36 C 420.35 208.22 420.00 208.35 417.33 209.60 C 414.65 210.85 415.20 210.59 412.69 211.84 C 410.19 213.09 410.70 212.83 408.37 214.08 C 406.03 215.33 406.51 215.07 404.36 216.32 C 402.21 217.57 402.65 217.31 400.68 218.56 C 398.72 219.81 399.12 219.55 397.35 220.80 C 395.58 222.05 395.94 221.79 394.37 223.04 C 392.80 224.29 393.11 224.03 391.75 225.28 C 390.39 226.53 390.66 226.27 389.50 227.52 C 388.35 228.77 388.57 228.51 387.63 229.76 C 386.69 231.01 386.87 230.75 386.14 232.00 C 385.42 233.25 385.55 232.99 385.04 234.24 C 384.54 235.49 384.62 235.23 384.33 236.48 C 384.05 237.73 384.08 237.47 384.02 238.72 C 383.95 239.97 383.94 239.71 384.10 240.96 C 384.25 242.21 384.19 241.95 384.57 243.20 C 384.94 244.45 384.84 244.19 385.43 245.44 C 386.03 246.69 385.88 246.43 386.69 247.68 C 387.50 248.93 387.30 248.67 388.33 249.92 C 389.35 251.17 389.11 250.91 390.35 252.16 C 391.58 253.41 391.30 253.15 392.74 254.40 C 394.19 255.65 393.86 255.39 395.51 256.64 C 397.15 257.89 396.78 257.63 398.63 258.88 C 400.47 260.13 400.06 259.87 402.10 261.12 C 404.14 262.37 403.68 262.11 405.91 263.36 C 408.13 264.61 407.76 264.40 410.04 265.60 C 412.33 266.80 412.95 267.07 414.08 267.64" stroke="#ffffff" stroke-width="4" stroke-linecap="round" stroke-linejoin="round" fill="none" opacity="0.22"/>
    <path d="M 609.92 267.64 C 609.81 267.69 610.95 267.16 609.51 267.84 C 608.06 268.52 607.50 268.83 604.76 270.08 C 602.02 271.33 602.62 271.07 599.72 272.32 C 596.82 273.57 597.46 273.31 594.41 274.56 C 591.37 275.81 592.03 275.55 588.85 276.80 C 585.67 278.05 586.36 277.79 583.06 279.04 C 579.75 280.29 580.47 280.03 577.04 281.28 C 573.62 282.53 574.36 282.27 570.83 283.52 C 567.29 284.77 568.06 284.51 564.43 285.76 C 560.80 287.01 561.58 286.75 557.87 288.00 C 554.16 289.25 554.96 288.99 551.17 290.24 C 547.39 291.49 548.20 291.23 544.35 292.48 C 540.50 293.73 541.33 293.47 537.43 294.72 C 533.53 295.97 534.37 295.71 530.43 296.96 C 526.50 298.21 527.34 297.95 523.38 299.20 C 519.42 300.45 520.26 300.19 516.29 301.44 C 512.31 302.69 513.16 302.43 509.19 303.68 C 505.21 304.93 506.06 304.67 502.09 305.92 C 498.13 307.17 498.97 306.91 495.03 308.16 C 491.09 309.41 491.92 309.15 488.02 310.40 C 484.11 311.65 484.94 311.39 481.08 312.64 C 477.22 313.89 478.03 313.63 474.23 314.88 C 470.44 316.13 471.24 315.87 467.51 317.12 C 463.78 318.37 464.57 318.11 460.92 319.36 C 457.27 320.61 458.04 320.35 454.49 321.60 C 450.93 322.85 451.68 322.59 448.23 323.84 C 444.78 325.09 445.51 324.83 442.17 326.08 C 438.84 327.33 438.26 327.58 436.33 328.32 C 434.40 329.06 435.58 328.61 435.29 328.73" stroke="#ffffff" stroke-width="4" stroke-linecap="round" stroke-linejoin="round" fill="none" opacity="0.22"/>
    <path d="M 588.71 328.73 C 589.99 329.24 590.50 329.42 593.28 330.56 C 596.06 331.70 595.71 331.55 598.64 332.80 C 601.57 334.05 600.96 333.79 603.73 335.04 C 606.51 336.29 605.93 336.03 608.54 337.28 C 611.15 338.53 610.62 338.27 613.06 339.52 C 615.50 340.77 615.00 340.51 617.26 341.76 C 619.52 343.01 619.06 342.75 621.14 344.00 C 623.22 345.25 622.79 344.99 624.68 346.24 C 626.57 347.49 626.19 347.23 627.87 348.48 C 629.56 349.73 629.23 349.47 630.71 350.72 C 632.20 351.97 631.91 351.71 633.19 352.96 C 634.47 354.21 634.22 353.95 635.28 355.20 C 636.35 356.45 636.15 356.19 637.00 357.44 C 637.86 358.69 637.70 358.43 638.34 359.68 C 638.98 360.93 638.86 360.67 639.28 361.92 C 639.70 363.17 639.64 362.91 639.84 364.16 C 640.04 365.41 640.02 365.15 640.00 366.40 C 639.98 367.65 640.01 367.39 639.76 368.64 C 639.52 369.89 639.60 369.63 639.14 370.88 C 638.68 372.13 638.80 371.87 638.12 373.12 C 637.44 374.37 637.61 374.11 636.71 375.36 C 635.81 376.61 636.03 376.35 634.92 377.60 C 633.81 378.85 634.07 378.59 632.75 379.84 C 631.43 381.09 631.73 380.83 630.21 382.08 C 628.68 383.33 629.03 383.07 627.30 384.32 C 625.57 385.57 625.96 385.31 624.04 386.56 C 622.11 387.81 621.93 387.89 620.43 388.80 C 618.93 389.71 619.17 389.53 618.68 389.82" stroke="#ffffff" stroke-width="4" stroke-linecap="round" stroke-linejoin="round" fill="none" opacity="0.22"/>
    <path d="M 405.32 389.82 C 405.93 390.16 405.70 390.07 407.51 391.04 C 409.32 392.01 409.30 392.03 411.77 393.28 C 414.24 394.53 413.70 394.27 416.34 395.52 C 418.98 396.77 418.40 396.51 421.21 397.76 C 424.01 399.01 423.40 398.75 426.35 400.00 C 429.31 401.25 428.66 400.99 431.76 402.24 C 434.86 403.49 434.18 403.23 437.42 404.48 C 440.65 405.73 439.95 405.47 443.30 406.72 C 446.66 407.97 445.93 407.71 449.40 408.96 C 452.87 410.21 452.12 409.95 455.69 411.20 C 459.26 412.45 458.49 412.19 462.15 413.44 C 465.81 414.69 465.03 414.43 468.77 415.68 C 472.51 416.93 471.71 416.67 475.52 417.92 C 479.33 419.17 478.51 418.91 482.38 420.16 C 486.25 421.41 485.42 421.15 489.33 422.40 C 493.25 423.65 492.41 423.39 496.36 424.64 C 500.30 425.89 499.46 425.63 503.43 426.88 C 507.40 428.13 506.55 427.87 510.53 429.12 C 514.50 430.37 513.66 430.11 517.63 431.36 C 521.60 432.61 520.76 432.35 524.71 433.60 C 528.67 434.85 527.83 434.59 531.76 435.84 C 535.69 437.09 534.86 436.83 538.74 438.08 C 542.63 439.33 541.81 439.07 545.65 440.32 C 549.48 441.57 548.67 441.31 552.45 442.56 C 556.22 443.81 555.42 443.55 559.12 444.80 C 562.82 446.05 562.04 445.79 565.65 447.04 C 569.26 448.29 568.97 448.20 572.01 449.28 C 575.06 450.36 575.26 450.45 576.53 450.91" stroke="#ffffff" stroke-width="4" stroke-linecap="round" stroke-linejoin="round" fill="none" opacity="0.22"/>
    <path d="M 447.47 450.91 C 447.01 451.08 447.95 450.72 445.81 451.52 C 443.67 452.32 443.12 452.51 439.83 453.76 C 436.55 455.01 437.23 454.75 434.08 456.00 C 430.92 457.25 431.58 456.99 428.57 458.24 C 425.55 459.49 426.18 459.23 423.31 460.48 C 420.44 461.73 421.04 461.47 418.33 462.72 C 415.62 463.97 416.18 463.71 413.63 464.96 C 411.09 466.21 411.61 465.95 409.24 467.20 C 406.87 468.45 407.35 468.19 405.16 469.44 C 402.97 470.69 403.42 470.43 401.42 471.68 C 399.42 472.93 399.82 472.67 398.01 473.92 C 396.20 475.17 396.57 474.91 394.96 476.16 C 393.35 477.41 393.67 477.15 392.26 478.40 C 390.86 479.65 391.13 479.39 389.94 480.64 C 388.74 481.89 388.97 481.63 387.99 482.88 C 387.00 484.13 387.19 483.87 386.42 485.12 C 385.65 486.37 385.79 486.11 385.24 487.36 C 384.69 488.61 384.78 488.35 384.45 489.60 C 384.12 490.85 384.16 490.59 384.05 491.84 C 383.94 493.09 383.94 492.83 384.05 494.08 C 384.16 495.33 384.11 495.07 384.44 496.32 C 384.77 497.57 384.67 497.31 385.22 498.56 C 385.77 499.81 385.63 499.55 386.39 500.80 C 387.16 502.05 386.97 501.79 387.95 503.04 C 388.94 504.29 388.70 504.03 389.90 505.28 C 391.09 506.53 390.81 506.27 392.22 507.52 C 393.62 508.77 393.30 508.51 394.90 509.76 C 396.51 511.01 397.10 511.37 397.95 512.00" stroke="#ffffff" stroke-width="4" stroke-linecap="round" stroke-linejoin="round" fill="none" opacity="0.22"/>
    <path d="M 626.05 512.00 C 625.10 512.63 624.65 512.99 622.65 514.24 C 620.65 515.49 621.10 515.23 618.91 516.48 C 616.72 517.73 617.21 517.47 614.84 518.72 C 612.47 519.97 613.00 519.71 610.45 520.96 C 607.91 522.21 608.47 521.95 605.77 523.20 C 603.06 524.45 603.65 524.19 600.79 525.44 C 597.92 526.69 598.55 526.43 595.54 527.68 C 592.52 528.93 593.18 528.67 590.03 529.92 C 586.88 531.17 587.56 530.91 584.28 532.16 C 581.00 533.41 581.71 533.15 578.31 534.40 C 574.91 535.65 575.64 535.39 572.13 536.64 C 568.62 537.89 569.38 537.63 565.77 538.88 C 562.16 540.13 562.94 539.87 559.24 541.12 C 555.55 542.37 556.34 542.11 552.57 543.36 C 548.80 544.61 549.61 544.35 545.78 545.60 C 541.94 546.85 542.76 546.59 538.87 547.84 C 534.99 549.09 535.82 548.83 531.89 550.08 C 527.96 551.33 528.80 551.07 524.85 552.32 C 520.89 553.57 521.73 553.31 517.76 554.56 C 513.79 555.81 514.64 555.55 510.66 556.80 C 506.68 558.05 507.53 557.79 503.56 559.04 C 499.59 560.29 500.44 560.03 496.49 561.28 C 492.54 562.53 493.38 562.27 489.47 563.52 C 485.55 564.77 486.38 564.51 482.51 565.76 C 478.64 567.01 479.46 566.75 475.65 568.00 C 471.83 569.25 472.64 568.99 468.89 570.24 C 465.15 571.49 464.63 571.68 462.27 572.48 C 459.92 573.28 460.99 572.92 460.49 573.09" stroke="#ffffff" stroke-width="4" stroke-linecap="round" stroke-linejoin="round" fill="none" opacity="0.22"/>
    <path d="M 563.51 573.09 C 564.82 573.55 565.12 573.64 568.19 574.72 C 571.27 575.80 571.01 575.71 574.49 576.96 C 577.96 578.21 577.23 577.95 580.59 579.20 C 583.94 580.45 583.24 580.19 586.48 581.44 C 589.71 582.69 589.04 582.43 592.14 583.68 C 595.24 584.93 594.59 584.67 597.55 585.92 C 600.51 587.17 599.89 586.91 602.70 588.16 C 605.50 589.41 604.92 589.15 607.57 590.40 C 610.21 591.65 609.67 591.39 612.15 592.64 C 614.62 593.89 614.11 593.63 616.41 594.88 C 618.71 596.13 618.24 595.87 620.36 597.12 C 622.48 598.37 622.05 598.11 623.97 599.36 C 625.90 600.61 625.51 600.35 627.24 601.60 C 628.97 602.85 628.62 602.59 630.15 603.84 C 631.68 605.09 631.38 604.83 632.70 606.08 C 634.03 607.33 633.77 607.07 634.88 608.32 C 635.99 609.57 635.78 609.31 636.68 610.56 C 637.58 611.81 637.41 611.55 638.09 612.80 C 638.78 614.05 638.66 613.79 639.12 615.04 C 639.59 616.29 639.51 616.03 639.76 617.28 C 640.00 618.53 639.97 618.27 640.00 619.52 C 640.02 620.77 640.04 620.51 639.84 621.76 C 639.65 623.01 639.71 622.75 639.30 624.00 C 638.88 625.25 638.99 624.99 638.36 626.24 C 637.73 627.49 637.88 627.23 637.03 628.48 C 636.18 629.73 636.39 629.47 635.32 630.72 C 634.26 631.97 634.18 631.99 633.23 632.96 C 632.28 633.93 632.29 633.84 631.93 634.18" stroke="#ffffff" stroke-width="4" stroke-linecap="round" stroke-linejoin="round" fill="none" opacity="0.22"/>
    <path d="M 392.07 634.18 C 392.40 634.47 392.12 634.29 393.24 635.20 C 394.36 636.11 394.38 636.19 396.07 637.44 C 397.75 638.69 397.37 638.43 399.26 639.68 C 401.14 640.93 400.72 640.67 402.79 641.92 C 404.87 643.17 404.40 642.91 406.66 644.16 C 408.92 645.41 408.42 645.15 410.86 646.40 C 413.30 647.65 412.76 647.39 415.37 648.64 C 417.98 649.89 417.40 649.63 420.17 650.88 C 422.94 652.13 422.34 651.87 425.26 653.12 C 428.19 654.37 427.55 654.11 430.62 655.36 C 433.69 656.61 433.02 656.35 436.22 657.60 C 439.43 658.85 438.73 658.59 442.06 659.84 C 445.39 661.09 444.67 660.83 448.12 662.08 C 451.56 663.33 450.82 663.07 454.37 664.32 C 457.92 665.57 457.15 665.31 460.80 666.56 C 464.44 667.81 463.66 667.55 467.38 668.80 C 471.11 670.05 470.31 669.79 474.11 671.04 C 477.90 672.29 477.09 672.03 480.95 673.28 C 484.80 674.53 483.98 674.27 487.88 675.52 C 491.79 676.77 490.95 676.51 494.89 677.76 C 498.83 679.01 497.99 678.75 501.96 680.00 C 505.92 681.25 505.08 680.99 509.05 682.24 C 513.03 683.49 512.18 683.23 516.15 684.48 C 520.13 685.73 519.28 685.47 523.24 686.72 C 527.21 687.97 526.37 687.71 530.30 688.96 C 534.24 690.21 533.40 689.95 537.30 691.20 C 541.20 692.45 540.72 692.30 544.22 693.44 C 547.72 694.58 548.25 694.76 549.81 695.27" stroke="#ffffff" stroke-width="4" stroke-linecap="round" stroke-linejoin="round" fill="none" opacity="0.22"/>
    <path d="M 474.19 695.27 C 473.84 695.39 475.18 694.94 472.96 695.68 C 470.73 696.42 469.97 696.67 466.25 697.92 C 462.54 699.17 463.32 698.91 459.69 700.16 C 456.06 701.41 456.83 701.15 453.29 702.40 C 449.76 703.65 450.50 703.39 447.07 704.64 C 443.65 705.89 444.36 705.63 441.05 706.88 C 437.74 708.13 438.44 707.87 435.25 709.12 C 432.07 710.37 432.73 710.11 429.69 711.36 C 426.64 712.61 427.28 712.35 424.38 713.60 C 421.48 714.85 422.08 714.59 419.34 715.84 C 416.59 717.09 417.16 716.83 414.58 718.08 C 412.00 719.33 412.53 719.07 410.13 720.32 C 407.72 721.57 408.21 721.31 405.98 722.56 C 403.76 723.81 404.21 723.55 402.17 724.80 C 400.13 726.05 400.54 725.79 398.69 727.04 C 396.84 728.29 397.21 728.03 395.56 729.28 C 393.91 730.53 394.24 730.27 392.79 731.52 C 391.34 732.77 391.63 732.51 390.39 733.76 C 389.15 735.01 389.39 734.75 388.36 736.00 C 387.33 737.25 387.53 736.99 386.71 738.24 C 385.90 739.49 386.05 739.23 385.45 740.48 C 384.86 741.73 384.96 741.47 384.58 742.72 C 384.20 743.97 384.26 743.71 384.10 744.96 C 383.94 746.21 383.95 745.95 384.02 747.20 C 384.08 748.45 384.04 748.19 384.32 749.44 C 384.61 750.69 384.52 750.43 385.03 751.68 C 385.53 752.93 385.40 752.67 386.12 753.92 C 386.84 755.17 387.14 755.48 387.60 756.16 C 388.06 756.84 387.71 756.31 387.75 756.36" stroke="#ffffff" stroke-width="4" stroke-linecap="round" stroke-linejoin="round" fill="none" opacity="0.22"/>
    <path d="M 636.25 756.36 C 635.77 756.93 635.64 757.20 634.54 758.40 C 633.43 759.60 633.65 759.39 632.30 760.64 C 630.94 761.89 631.25 761.63 629.68 762.88 C 628.12 764.13 628.47 763.87 626.71 765.12 C 624.95 766.37 625.34 766.11 623.38 767.36 C 621.42 768.61 621.86 768.35 619.71 769.60 C 617.57 770.85 618.04 770.59 615.71 771.84 C 613.38 773.09 613.90 772.83 611.39 774.08 C 608.88 775.33 609.44 775.07 606.76 776.32 C 604.09 777.57 604.68 777.31 601.84 778.56 C 599.01 779.81 599.63 779.55 596.65 780.80 C 593.67 782.05 594.32 781.79 591.19 783.04 C 588.07 784.29 588.75 784.03 585.49 785.28 C 582.24 786.53 582.94 786.27 579.56 787.52 C 576.19 788.77 576.92 788.51 573.43 789.76 C 569.94 791.01 570.69 790.75 567.11 792.00 C 563.52 793.25 564.29 792.99 560.61 794.24 C 556.93 795.49 557.72 795.23 553.97 796.48 C 550.21 797.73 551.02 797.47 547.20 798.72 C 543.37 799.97 544.19 799.71 540.31 800.96 C 536.44 802.21 537.27 801.95 533.35 803.20 C 529.43 804.45 530.26 804.19 526.31 805.44 C 522.36 806.69 523.20 806.43 519.23 807.68 C 515.26 808.93 516.11 808.67 512.13 809.92 C 508.16 811.17 509.00 810.91 505.03 812.16 C 501.06 813.41 501.91 813.15 497.95 814.40 C 494.00 815.65 493.60 815.78 490.92 816.64 C 488.24 817.50 489.09 817.23 488.37 817.45" stroke="#ffffff" stroke-width="4" stroke-linecap="round" stroke-linejoin="round" fill="none" opacity="0.22"/>
    <path d="M 535.63 817.45 C 536.87 817.85 536.89 817.85 540.05 818.88 C 543.22 819.91 543.11 819.87 546.94 821.12 C 550.76 822.37 549.96 822.11 553.71 823.36 C 557.47 824.61 556.68 824.35 560.36 825.60 C 564.05 826.85 563.27 826.59 566.86 827.84 C 570.46 829.09 569.70 828.83 573.19 830.08 C 576.69 831.33 575.95 831.07 579.34 832.32 C 582.72 833.57 582.01 833.31 585.27 834.56 C 588.53 835.81 587.85 835.55 590.98 836.80 C 594.11 838.05 593.46 837.79 596.45 839.04 C 599.43 840.29 598.81 840.03 601.65 841.28 C 604.49 842.53 603.90 842.27 606.58 843.52 C 609.26 844.77 608.71 844.51 611.22 845.76 C 613.73 847.01 614.34 847.37 615.55 848.00" stroke="#ffffff" stroke-width="4" stroke-linecap="round" stroke-linejoin="round" fill="none" opacity="0.22"/>
    <g>    <circle cx="599.9" cy="206.5" r="6.8" fill="#065f46"/>
    <circle cx="599.9" cy="206.5" r="4.8" fill="url(#node)"/>
    <circle cx="598.9" cy="205.5" r="1.5" fill="#fffef9" opacity="0.75"/>
    <circle cx="424.1" cy="206.5" r="6.8" fill="#065f46"/>
    <circle cx="424.1" cy="206.5" r="4.8" fill="url(#node)"/>
    <circle cx="423.1" cy="205.5" r="1.5" fill="#fffef9" opacity="0.75"/>
    <circle cx="609.9" cy="267.6" r="6.8" fill="#065f46"/>
    <circle cx="609.9" cy="267.6" r="4.8" fill="url(#node)"/>
    <circle cx="608.9" cy="266.6" r="1.5" fill="#fffef9" opacity="0.75"/>
    <circle cx="414.1" cy="267.6" r="6.8" fill="#065f46"/>
    <circle cx="414.1" cy="267.6" r="4.8" fill="url(#node)"/>
    <circle cx="413.1" cy="266.6" r="1.5" fill="#fffef9" opacity="0.75"/>
    <circle cx="435.3" cy="328.7" r="6.8" fill="#065f46"/>
    <circle cx="435.3" cy="328.7" r="4.8" fill="url(#node)"/>
    <circle cx="434.3" cy="327.7" r="1.5" fill="#fffef9" opacity="0.75"/>
    <circle cx="588.7" cy="328.7" r="6.8" fill="#065f46"/>
    <circle cx="588.7" cy="328.7" r="4.8" fill="url(#node)"/>
    <circle cx="587.7" cy="327.7" r="1.5" fill="#fffef9" opacity="0.75"/>
    <circle cx="405.3" cy="389.8" r="6.8" fill="#065f46"/>
    <circle cx="405.3" cy="389.8" r="4.8" fill="url(#node)"/>
    <circle cx="404.3" cy="388.8" r="1.5" fill="#fffef9" opacity="0.75"/>
    <circle cx="618.7" cy="389.8" r="6.8" fill="#065f46"/>
    <circle cx="618.7" cy="389.8" r="4.8" fill="url(#node)"/>
    <circle cx="617.7" cy="388.8" r="1.5" fill="#fffef9" opacity="0.75"/>
    <circle cx="576.5" cy="450.9" r="6.8" fill="#065f46"/>
    <circle cx="576.5" cy="450.9" r="4.8" fill="url(#node)"/>
    <circle cx="575.5" cy="449.9" r="1.5" fill="#fffef9" opacity="0.75"/>
    <circle cx="447.5" cy="450.9" r="6.8" fill="#065f46"/>
    <circle cx="447.5" cy="450.9" r="4.8" fill="url(#node)"/>
    <circle cx="446.5" cy="449.9" r="1.5" fill="#fffef9" opacity="0.75"/>
    <circle cx="626.0" cy="512.0" r="6.8" fill="#065f46"/>
    <circle cx="626.0" cy="512.0" r="4.8" fill="url(#node)"/>
    <circle cx="625.0" cy="511.0" r="1.5" fill="#fffef9" opacity="0.75"/>
    <circle cx="398.0" cy="512.0" r="6.8" fill="#065f46"/>
    <circle cx="398.0" cy="512.0" r="4.8" fill="url(#node)"/>
    <circle cx="397.0" cy="511.0" r="1.5" fill="#fffef9" opacity="0.75"/>
    <circle cx="460.5" cy="573.1" r="6.8" fill="#065f46"/>
    <circle cx="460.5" cy="573.1" r="4.8" fill="url(#node)"/>
    <circle cx="459.5" cy="572.1" r="1.5" fill="#fffef9" opacity="0.75"/>
    <circle cx="563.5" cy="573.1" r="6.8" fill="#065f46"/>
    <circle cx="563.5" cy="573.1" r="4.8" fill="url(#node)"/>
    <circle cx="562.5" cy="572.1" r="1.5" fill="#fffef9" opacity="0.75"/>
    <circle cx="392.1" cy="634.2" r="6.8" fill="#065f46"/>
    <circle cx="392.1" cy="634.2" r="4.8" fill="url(#node)"/>
    <circle cx="391.1" cy="633.2" r="1.5" fill="#fffef9" opacity="0.75"/>
    <circle cx="631.9" cy="634.2" r="6.8" fill="#065f46"/>
    <circle cx="631.9" cy="634.2" r="4.8" fill="url(#node)"/>
    <circle cx="630.9" cy="633.2" r="1.5" fill="#fffef9" opacity="0.75"/>
    <circle cx="549.8" cy="695.3" r="6.8" fill="#065f46"/>
    <circle cx="549.8" cy="695.3" r="4.8" fill="url(#node)"/>
    <circle cx="548.8" cy="694.3" r="1.5" fill="#fffef9" opacity="0.75"/>
    <circle cx="474.2" cy="695.3" r="6.8" fill="#065f46"/>
    <circle cx="474.2" cy="695.3" r="4.8" fill="url(#node)"/>
    <circle cx="473.2" cy="694.3" r="1.5" fill="#fffef9" opacity="0.75"/>
    <circle cx="636.2" cy="756.4" r="6.8" fill="#065f46"/>
    <circle cx="636.2" cy="756.4" r="4.8" fill="url(#node)"/>
    <circle cx="635.2" cy="755.4" r="1.5" fill="#fffef9" opacity="0.75"/>
    <circle cx="387.8" cy="756.4" r="6.8" fill="#065f46"/>
    <circle cx="387.8" cy="756.4" r="4.8" fill="url(#node)"/>
    <circle cx="386.8" cy="755.4" r="1.5" fill="#fffef9" opacity="0.75"/>
    <circle cx="488.4" cy="817.5" r="6.8" fill="#065f46"/>
    <circle cx="488.4" cy="817.5" r="4.8" fill="url(#node)"/>
    <circle cx="487.4" cy="816.5" r="1.5" fill="#fffef9" opacity="0.75"/>
    <circle cx="535.6" cy="817.5" r="6.8" fill="#065f46"/>
    <circle cx="535.6" cy="817.5" r="4.8" fill="url(#node)"/>
    <circle cx="534.6" cy="816.5" r="1.5" fill="#fffef9" opacity="0.75"/></g>
  </g>
</svg>
